<svg focusable="false" xmlns="http://www.w3.org/2000/svg" viewBox="0 0 24 24">
  <path d="M22.549 10.08a5.772 5.772 0 0 0-3.073-2.019 7.826 7.826 0 0 0-14.424-1.326 6.484 6.484 0 0 0 1.602 12.765h2.2a3.219 3.219 0 0 1-.1-.771v-1.706h-2.1a4 4 0 0 1-.6-7.943l.746-.114.289-.686a5.327 5.327 0 0 1 10.129 1.041l.187.956.967.113a3.328 3.328 0 0 1-.387 6.632h-2.735v1.708a3.219 3.219 0 0 1-.1.771h2.835a5.816 5.816 0 0 0 4.566-9.422zm-6.471 3.034a.843.843 0 0 0-.2-.549l-3.237-3.772a.845.845 0 0 0-1.192-.093l-3.325 3.865a.845.845 0 0 0 .642 1.4h1.984v4.745a1.25 1.25 0 0 0 2.5 0v-4.749h1.984a.845.845 0 0 0 .845-.847z" fill="#007DAA"/>
  <path fill="none" d="M0 0h24v24h-24z"/>
</svg>